<svg width="136" height="40" viewBox="0 0 136 40" fill="none" xmlns="http://www.w3.org/2000/svg">
<rect width="136" height="40" rx="4" fill="#F2F2F2"/>
<path d="M48.3822 15.25V8.02C48.4056 8.02 48.4756 8.02167 48.5922 8.025C48.7122 8.025 48.8572 8.025 49.0272 8.025C49.1972 8.02167 49.3739 8.02167 49.5572 8.025C49.7406 8.025 49.9089 8.02667 50.0622 8.03C50.9489 8.04333 51.6672 8.18833 52.2172 8.465C52.7706 8.73833 53.1756 9.13667 53.4322 9.66C53.6922 10.1833 53.8222 10.8267 53.8222 11.59C53.8222 12.39 53.6822 13.0617 53.4022 13.605C53.1256 14.1483 52.7022 14.5583 52.1322 14.835C51.5656 15.1117 50.8439 15.25 49.9672 15.25H48.3822ZM49.3322 14.455H49.9672C50.5639 14.455 51.0772 14.3633 51.5072 14.18C51.9372 13.9933 52.2672 13.6917 52.4972 13.275C52.7306 12.8583 52.8472 12.3017 52.8472 11.605C52.8472 10.9083 52.7339 10.3567 52.5072 9.95C52.2839 9.54333 51.9606 9.25333 51.5372 9.08C51.1139 8.90333 50.6039 8.815 50.0072 8.815H49.3322V14.455ZM57.1958 15.35C56.7192 15.35 56.3025 15.2483 55.9458 15.045C55.5925 14.8383 55.3175 14.5367 55.1208 14.14C54.9242 13.7433 54.8258 13.2583 54.8258 12.685C54.8258 12.145 54.9175 11.6717 55.1008 11.265C55.2842 10.8583 55.5525 10.5433 55.9058 10.32C56.2592 10.0933 56.6908 9.98 57.2008 9.98C57.6775 9.98 58.0908 10.085 58.4408 10.295C58.7908 10.5017 59.0625 10.8067 59.2558 11.21C59.4525 11.6133 59.5508 12.105 59.5508 12.685C59.5508 13.2117 59.4608 13.675 59.2808 14.075C59.1008 14.475 58.8358 14.7883 58.4858 15.015C58.1392 15.2383 57.7092 15.35 57.1958 15.35ZM57.2008 14.62C57.5075 14.62 57.7675 14.5417 57.9808 14.385C58.1942 14.2283 58.3558 14.0033 58.4658 13.71C58.5792 13.4167 58.6358 13.0683 58.6358 12.665C58.6358 12.295 58.5858 11.9633 58.4858 11.67C58.3892 11.3733 58.2358 11.1383 58.0258 10.965C57.8158 10.7917 57.5408 10.705 57.2008 10.705C56.8875 10.705 56.6225 10.7833 56.4058 10.94C56.1892 11.0933 56.0242 11.3167 55.9108 11.61C55.8008 11.9033 55.7458 12.255 55.7458 12.665C55.7458 13.0283 55.7942 13.3583 55.8908 13.655C55.9908 13.9517 56.1475 14.1867 56.3608 14.36C56.5775 14.5333 56.8575 14.62 57.2008 14.62ZM61.8068 15.25L60.2068 10.08H61.0668L62.2468 14.055H62.3268L63.4918 10.08H64.1918L65.4018 14.045H65.4868L66.6168 10.08H67.4868L65.9168 15.25H65.0068L63.8318 11.435L62.7068 15.25H61.8068ZM68.5145 15.25V10.08H69.4095V10.83C69.4928 10.6867 69.6078 10.5517 69.7545 10.425C69.9045 10.2983 70.0845 10.1967 70.2945 10.12C70.5078 10.0433 70.7528 10.005 71.0295 10.005C71.3562 10.005 71.6562 10.07 71.9295 10.2C72.2062 10.33 72.4262 10.5333 72.5895 10.81C72.7562 11.0833 72.8395 11.4367 72.8395 11.87V15.25H71.9145V11.96C71.9145 11.5567 71.8078 11.2583 71.5945 11.065C71.3845 10.8683 71.1112 10.77 70.7745 10.77C70.5412 10.77 70.3228 10.8083 70.1195 10.885C69.9162 10.9583 69.7512 11.0717 69.6245 11.225C69.4978 11.375 69.4345 11.565 69.4345 11.795V15.25H68.5145ZM75.591 15.315C75.311 15.315 75.0843 15.2767 74.911 15.2C74.741 15.1233 74.6093 15.02 74.516 14.89C74.426 14.76 74.3643 14.6117 74.331 14.445C74.301 14.275 74.286 14.1 74.286 13.92V7.82H75.196V13.83C75.196 14.09 75.246 14.285 75.346 14.415C75.4493 14.545 75.5927 14.6167 75.776 14.63L76.056 14.635V15.235C75.9793 15.2583 75.8993 15.2767 75.816 15.29C75.7327 15.3067 75.6577 15.315 75.591 15.315ZM79.1392 15.35C78.6625 15.35 78.2459 15.2483 77.8892 15.045C77.5359 14.8383 77.2609 14.5367 77.0642 14.14C76.8675 13.7433 76.7692 13.2583 76.7692 12.685C76.7692 12.145 76.8609 11.6717 77.0442 11.265C77.2275 10.8583 77.4959 10.5433 77.8492 10.32C78.2025 10.0933 78.6342 9.98 79.1442 9.98C79.6209 9.98 80.0342 10.085 80.3842 10.295C80.7342 10.5017 81.0059 10.8067 81.1992 11.21C81.3959 11.6133 81.4942 12.105 81.4942 12.685C81.4942 13.2117 81.4042 13.675 81.2242 14.075C81.0442 14.475 80.7792 14.7883 80.4292 15.015C80.0825 15.2383 79.6525 15.35 79.1392 15.35ZM79.1442 14.62C79.4509 14.62 79.7109 14.5417 79.9242 14.385C80.1375 14.2283 80.2992 14.0033 80.4092 13.71C80.5225 13.4167 80.5792 13.0683 80.5792 12.665C80.5792 12.295 80.5292 11.9633 80.4292 11.67C80.3325 11.3733 80.1792 11.1383 79.9692 10.965C79.7592 10.7917 79.4842 10.705 79.1442 10.705C78.8309 10.705 78.5659 10.7833 78.3492 10.94C78.1325 11.0933 77.9675 11.3167 77.8542 11.61C77.7442 11.9033 77.6892 12.255 77.6892 12.665C77.6892 13.0283 77.7375 13.3583 77.8342 13.655C77.9342 13.9517 78.0909 14.1867 78.3042 14.36C78.5209 14.5333 78.8009 14.62 79.1442 14.62ZM84.1149 15.35C83.7782 15.35 83.4816 15.2917 83.2249 15.175C82.9716 15.055 82.7716 14.8833 82.6249 14.66C82.4816 14.4367 82.4099 14.1667 82.4099 13.85C82.4099 13.2767 82.6099 12.85 83.0099 12.57C83.4099 12.29 84.0516 12.14 84.9349 12.12L85.8549 12.095V11.69C85.8549 11.3733 85.7599 11.1233 85.5699 10.94C85.3799 10.7533 85.0866 10.66 84.6899 10.66C84.3932 10.6633 84.1316 10.7333 83.9049 10.87C83.6782 11.0067 83.5332 11.23 83.4699 11.54H82.6549C82.6749 11.2033 82.7682 10.92 82.9349 10.69C83.1049 10.4567 83.3432 10.28 83.6499 10.16C83.9566 10.04 84.3182 9.98 84.7349 9.98C85.1849 9.98 85.5582 10.0433 85.8549 10.17C86.1549 10.2967 86.3782 10.4833 86.5249 10.73C86.6749 10.9767 86.7499 11.28 86.7499 11.64V15.25H85.9599L85.8899 14.28C85.6932 14.6833 85.4399 14.9633 85.1299 15.12C84.8232 15.2733 84.4849 15.35 84.1149 15.35ZM84.3899 14.685C84.5666 14.685 84.7399 14.6533 84.9099 14.59C85.0832 14.5267 85.2399 14.4417 85.3799 14.335C85.5232 14.225 85.6382 14.1033 85.7249 13.97C85.8116 13.8333 85.8549 13.6933 85.8549 13.55V12.665L85.0899 12.68C84.6932 12.6867 84.3632 12.7267 84.0999 12.8C83.8366 12.8733 83.6382 12.9883 83.5049 13.145C83.3716 13.3017 83.3049 13.5067 83.3049 13.76C83.3049 14.05 83.4066 14.2767 83.6099 14.44C83.8132 14.6033 84.0732 14.685 84.3899 14.685ZM90.0772 15.35C89.4039 15.35 88.8706 15.12 88.4772 14.66C88.0872 14.2 87.8922 13.5283 87.8922 12.645C87.8922 12.1083 87.9706 11.64 88.1272 11.24C88.2839 10.84 88.5189 10.53 88.8322 10.31C89.1456 10.09 89.5356 9.98 90.0022 9.98C90.2522 9.98 90.4722 10.0117 90.6622 10.075C90.8522 10.1383 91.0172 10.2183 91.1572 10.315C91.2972 10.4117 91.4106 10.5117 91.4972 10.615C91.5872 10.7183 91.6539 10.8133 91.6972 10.9V7.82H92.6322V15.25H91.9222L91.8222 14.19C91.7889 14.29 91.7356 14.4067 91.6622 14.54C91.5889 14.67 91.4856 14.7983 91.3522 14.925C91.2222 15.0483 91.0522 15.15 90.8422 15.23C90.6322 15.31 90.3772 15.35 90.0772 15.35ZM90.2422 14.64C90.7622 14.64 91.1339 14.4817 91.3572 14.165C91.5839 13.845 91.6972 13.3233 91.6972 12.6C91.6939 12.1967 91.6439 11.8533 91.5472 11.57C91.4506 11.2867 91.2972 11.0717 91.0872 10.925C90.8806 10.775 90.6039 10.7 90.2572 10.7C89.8339 10.7 89.4889 10.8517 89.2222 11.155C88.9556 11.4583 88.8222 11.94 88.8222 12.6C88.8222 13.2467 88.9422 13.7483 89.1822 14.105C89.4222 14.4617 89.7756 14.64 90.2422 14.64ZM98.5337 15.35C98.0571 15.35 97.6404 15.2483 97.2837 15.045C96.9304 14.8383 96.6554 14.5367 96.4587 14.14C96.2621 13.7433 96.1637 13.2583 96.1637 12.685C96.1637 12.145 96.2554 11.6717 96.4387 11.265C96.6221 10.8583 96.8904 10.5433 97.2437 10.32C97.5971 10.0933 98.0287 9.98 98.5387 9.98C99.0154 9.98 99.4287 10.085 99.7787 10.295C100.129 10.5017 100.4 10.8067 100.594 11.21C100.79 11.6133 100.889 12.105 100.889 12.685C100.889 13.2117 100.799 13.675 100.619 14.075C100.439 14.475 100.174 14.7883 99.8237 15.015C99.4771 15.2383 99.0471 15.35 98.5337 15.35ZM98.5387 14.62C98.8454 14.62 99.1054 14.5417 99.3187 14.385C99.5321 14.2283 99.6937 14.0033 99.8037 13.71C99.9171 13.4167 99.9737 13.0683 99.9737 12.665C99.9737 12.295 99.9237 11.9633 99.8237 11.67C99.7271 11.3733 99.5737 11.1383 99.3637 10.965C99.1537 10.7917 98.8787 10.705 98.5387 10.705C98.2254 10.705 97.9604 10.7833 97.7437 10.94C97.5271 11.0933 97.3621 11.3167 97.2487 11.61C97.1387 11.9033 97.0837 12.255 97.0837 12.665C97.0837 13.0283 97.1321 13.3583 97.2287 13.655C97.3287 13.9517 97.4854 14.1867 97.6987 14.36C97.9154 14.5333 98.1954 14.62 98.5387 14.62ZM102.118 15.25V10.08H103.013V10.83C103.096 10.6867 103.211 10.5517 103.358 10.425C103.508 10.2983 103.688 10.1967 103.898 10.12C104.111 10.0433 104.356 10.005 104.633 10.005C104.96 10.005 105.26 10.07 105.533 10.2C105.81 10.33 106.03 10.5333 106.193 10.81C106.36 11.0833 106.443 11.4367 106.443 11.87V15.25H105.518V11.96C105.518 11.5567 105.411 11.2583 105.198 11.065C104.988 10.8683 104.715 10.77 104.378 10.77C104.145 10.77 103.926 10.8083 103.723 10.885C103.52 10.9583 103.355 11.0717 103.228 11.225C103.101 11.375 103.038 11.565 103.038 11.795V15.25H102.118ZM112.216 15.275C111.859 15.275 111.583 15.2267 111.386 15.13C111.189 15.0333 111.051 14.89 110.971 14.7C110.894 14.51 110.856 14.2767 110.856 14V10.755H110.016V10.08H110.881L111.106 8.575H111.786V10.075H112.951V10.755H111.786V13.97C111.786 14.1533 111.804 14.2883 111.841 14.375C111.881 14.4583 111.946 14.5117 112.036 14.535C112.126 14.5583 112.253 14.57 112.416 14.57H112.981V15.19C112.918 15.2133 112.821 15.2333 112.691 15.25C112.564 15.2667 112.406 15.275 112.216 15.275ZM114.208 15.25V7.82H115.108V10.84C115.195 10.6967 115.311 10.5633 115.458 10.44C115.605 10.3133 115.783 10.2117 115.993 10.135C116.203 10.055 116.446 10.015 116.723 10.015C117.06 10.015 117.365 10.0783 117.638 10.205C117.911 10.3283 118.128 10.505 118.288 10.735C118.448 10.965 118.528 11.2383 118.528 11.555V15.25H117.603V11.74C117.603 11.43 117.496 11.1917 117.283 11.025C117.073 10.855 116.798 10.77 116.458 10.77C116.228 10.77 116.011 10.8083 115.808 10.885C115.605 10.9583 115.44 11.0717 115.313 11.225C115.19 11.375 115.128 11.5667 115.128 11.8V15.25H114.208ZM122.155 15.35C121.675 15.35 121.251 15.245 120.885 15.035C120.518 14.825 120.231 14.5233 120.025 14.13C119.818 13.7367 119.715 13.265 119.715 12.715C119.715 12.1717 119.808 11.695 119.995 11.285C120.181 10.875 120.451 10.555 120.805 10.325C121.161 10.095 121.59 9.98 122.09 9.98C122.576 9.98 122.988 10.085 123.325 10.295C123.661 10.505 123.916 10.8017 124.09 11.185C124.266 11.565 124.355 12.0167 124.355 12.54V12.88H120.65C120.65 13.2067 120.703 13.5033 120.81 13.77C120.92 14.0333 121.085 14.2433 121.305 14.4C121.525 14.5567 121.803 14.635 122.14 14.635C122.47 14.635 122.753 14.5583 122.99 14.405C123.23 14.2517 123.383 14.03 123.45 13.74H124.32C124.26 14.09 124.12 14.385 123.9 14.625C123.683 14.865 123.421 15.0467 123.115 15.17C122.811 15.29 122.491 15.35 122.155 15.35ZM120.655 12.255H123.465C123.465 11.9583 123.415 11.6917 123.315 11.455C123.215 11.215 123.061 11.0267 122.855 10.89C122.651 10.75 122.395 10.68 122.085 10.68C121.761 10.68 121.493 10.7583 121.28 10.915C121.066 11.0683 120.908 11.2667 120.805 11.51C120.701 11.75 120.651 11.9983 120.655 12.255Z" fill="#3A3A3A"/>
<path d="M49.9086 29.375L54.0926 17.807H55.7646L59.9486 29.375H58.4366L57.3006 26.207H52.5566L51.4126 29.375H49.9086ZM52.9486 24.847H56.8926L54.9246 19.255L52.9486 24.847ZM61.828 31.951V21.103H63.3L63.316 22.543C63.412 22.3723 63.5347 22.1937 63.684 22.007C63.8387 21.8203 64.0253 21.647 64.244 21.487C64.468 21.327 64.7267 21.1963 65.02 21.095C65.3187 20.9937 65.6573 20.943 66.036 20.943C66.6973 20.943 67.2787 21.095 67.78 21.399C68.2867 21.6977 68.6813 22.1563 68.964 22.775C69.2467 23.3937 69.388 24.1777 69.388 25.127C69.388 26.0763 69.2493 26.879 68.972 27.535C68.7 28.1857 68.3053 28.6817 67.788 29.023C67.2707 29.3643 66.6467 29.535 65.916 29.535C65.548 29.535 65.22 29.4817 64.932 29.375C64.6493 29.2737 64.4013 29.1403 64.188 28.975C63.98 28.8043 63.804 28.623 63.66 28.431C63.5213 28.239 63.4067 28.055 63.316 27.879V31.951H61.828ZM65.636 28.383C66.3187 28.383 66.876 28.1243 67.308 27.607C67.74 27.0843 67.956 26.2737 67.956 25.175C67.956 24.231 67.7587 23.4817 67.364 22.927C66.9693 22.3723 66.3933 22.095 65.636 22.095C64.868 22.095 64.2867 22.3803 63.892 22.951C63.4973 23.5163 63.3 24.2577 63.3 25.175C63.3 25.767 63.388 26.3057 63.564 26.791C63.74 27.2763 64.0013 27.663 64.348 27.951C64.6947 28.239 65.124 28.383 65.636 28.383ZM71.3593 31.951V21.103H72.8313L72.8473 22.543C72.9433 22.3723 73.0659 22.1937 73.2153 22.007C73.3699 21.8203 73.5566 21.647 73.7753 21.487C73.9993 21.327 74.2579 21.1963 74.5513 21.095C74.8499 20.9937 75.1886 20.943 75.5673 20.943C76.2286 20.943 76.8099 21.095 77.3113 21.399C77.8179 21.6977 78.2126 22.1563 78.4953 22.775C78.7779 23.3937 78.9193 24.1777 78.9193 25.127C78.9193 26.0763 78.7806 26.879 78.5033 27.535C78.2313 28.1857 77.8366 28.6817 77.3193 29.023C76.8019 29.3643 76.1779 29.535 75.4473 29.535C75.0793 29.535 74.7513 29.4817 74.4633 29.375C74.1806 29.2737 73.9326 29.1403 73.7193 28.975C73.5113 28.8043 73.3353 28.623 73.1913 28.431C73.0526 28.239 72.9379 28.055 72.8473 27.879V31.951H71.3593ZM75.1673 28.383C75.8499 28.383 76.4073 28.1243 76.8393 27.607C77.2713 27.0843 77.4873 26.2737 77.4873 25.175C77.4873 24.231 77.2899 23.4817 76.8953 22.927C76.5006 22.3723 75.9246 22.095 75.1673 22.095C74.3993 22.095 73.8179 22.3803 73.4233 22.951C73.0286 23.5163 72.8313 24.2577 72.8313 25.175C72.8313 25.767 72.9193 26.3057 73.0953 26.791C73.2713 27.2763 73.5326 27.663 73.8793 27.951C74.2259 28.239 74.6553 28.383 75.1673 28.383ZM88.9114 29.535C88.346 29.535 87.81 29.4683 87.3034 29.335C86.7967 29.1963 86.3354 28.991 85.9194 28.719C85.5087 28.447 85.1674 28.111 84.8954 27.711C84.6287 27.3057 84.4607 26.8363 84.3914 26.303H85.9434C86.0394 26.7403 86.2287 27.1083 86.5114 27.407C86.7994 27.7057 87.154 27.9297 87.5754 28.079C88.002 28.2283 88.4687 28.303 88.9754 28.303C89.466 28.303 89.9167 28.2257 90.3274 28.071C90.7434 27.9163 91.0767 27.6923 91.3274 27.399C91.578 27.1003 91.7034 26.743 91.7034 26.327C91.7034 25.8683 91.554 25.5003 91.2554 25.223C90.9567 24.9403 90.4954 24.7137 89.8714 24.543L87.4874 23.927C86.9487 23.7937 86.4714 23.607 86.0554 23.367C85.6447 23.1217 85.322 22.8017 85.0874 22.407C84.8527 22.007 84.7354 21.511 84.7354 20.919C84.7354 20.263 84.9167 19.6923 85.2794 19.207C85.642 18.7163 86.1327 18.3377 86.7514 18.071C87.3754 17.799 88.0794 17.663 88.8634 17.663C89.77 17.663 90.5327 17.8203 91.1514 18.135C91.7754 18.4497 92.2474 18.863 92.5674 19.375C92.8874 19.887 93.0474 20.4337 93.0474 21.015H91.5274C91.4794 20.487 91.3247 20.071 91.0634 19.767C90.802 19.4577 90.4767 19.2363 90.0874 19.103C89.698 18.9643 89.274 18.895 88.8154 18.895C87.9887 18.895 87.362 19.0843 86.9354 19.463C86.514 19.8363 86.3034 20.2817 86.3034 20.799C86.3034 21.2737 86.4554 21.647 86.7594 21.919C87.0634 22.191 87.5114 22.4017 88.1034 22.551L90.4234 23.151C91.1114 23.311 91.658 23.543 92.0634 23.847C92.474 24.151 92.7674 24.5057 92.9434 24.911C93.1247 25.311 93.2154 25.7457 93.2154 26.215C93.2154 26.855 93.0367 27.4257 92.6794 27.927C92.322 28.4283 91.8207 28.823 91.1754 29.111C90.5354 29.3937 89.7807 29.535 88.9114 29.535ZM98.11 29.415C97.5393 29.415 97.0967 29.3377 96.782 29.183C96.4673 29.0283 96.246 28.799 96.118 28.495C95.9953 28.191 95.934 27.8177 95.934 27.375V22.183H94.59V21.103H95.974L96.334 18.695H97.422V21.095H99.286V22.183H97.422V27.327C97.422 27.6203 97.4513 27.8363 97.51 27.975C97.574 28.1083 97.678 28.1937 97.822 28.231C97.966 28.2683 98.1687 28.287 98.43 28.287H99.334V29.279C99.2327 29.3163 99.078 29.3483 98.87 29.375C98.6673 29.4017 98.414 29.415 98.11 29.415ZM104.39 29.535C103.627 29.535 102.961 29.3723 102.39 29.047C101.825 28.7163 101.385 28.2337 101.07 27.599C100.755 26.9643 100.598 26.1883 100.598 25.271C100.598 24.407 100.745 23.6497 101.038 22.999C101.331 22.3483 101.761 21.8443 102.326 21.487C102.891 21.1243 103.582 20.943 104.398 20.943C105.161 20.943 105.822 21.111 106.382 21.447C106.942 21.7777 107.377 22.2657 107.686 22.911C108.001 23.5563 108.158 24.343 108.158 25.271C108.158 26.1137 108.014 26.855 107.726 27.495C107.438 28.135 107.014 28.6363 106.454 28.999C105.899 29.3563 105.211 29.535 104.39 29.535ZM104.398 28.367C104.889 28.367 105.305 28.2417 105.646 27.991C105.987 27.7403 106.246 27.3803 106.422 26.911C106.603 26.4417 106.694 25.8843 106.694 25.239C106.694 24.647 106.614 24.1163 106.454 23.647C106.299 23.1723 106.054 22.7963 105.718 22.519C105.382 22.2417 104.942 22.103 104.398 22.103C103.897 22.103 103.473 22.2283 103.126 22.479C102.779 22.7243 102.515 23.0817 102.334 23.551C102.158 24.0203 102.07 24.583 102.07 25.239C102.07 25.8203 102.147 26.3483 102.302 26.823C102.462 27.2977 102.713 27.6737 103.054 27.951C103.401 28.2283 103.849 28.367 104.398 28.367ZM110.125 29.375V21.103H111.533V22.695C111.672 22.3003 111.866 21.975 112.117 21.719C112.368 21.4577 112.653 21.263 112.973 21.135C113.298 21.007 113.634 20.943 113.981 20.943C114.104 20.943 114.224 20.951 114.341 20.967C114.458 20.983 114.549 21.0097 114.613 21.047V22.479C114.533 22.4417 114.429 22.4177 114.301 22.407C114.178 22.391 114.074 22.383 113.989 22.383C113.658 22.3617 113.349 22.383 113.061 22.447C112.773 22.5057 112.52 22.6097 112.301 22.759C112.082 22.9083 111.909 23.1057 111.781 23.351C111.658 23.591 111.597 23.8843 111.597 24.231V29.375H110.125ZM119.746 29.535C118.978 29.535 118.301 29.367 117.714 29.031C117.127 28.695 116.669 28.2123 116.338 27.583C116.007 26.9537 115.842 26.199 115.842 25.319C115.842 24.4497 115.991 23.687 116.29 23.031C116.589 22.375 117.021 21.863 117.586 21.495C118.157 21.127 118.842 20.943 119.642 20.943C120.421 20.943 121.079 21.111 121.618 21.447C122.157 21.783 122.565 22.2577 122.842 22.871C123.125 23.479 123.266 24.2017 123.266 25.039V25.583H117.338C117.338 26.1057 117.423 26.5803 117.594 27.007C117.77 27.4283 118.034 27.7643 118.386 28.015C118.738 28.2657 119.183 28.391 119.722 28.391C120.25 28.391 120.703 28.2683 121.082 28.023C121.466 27.7777 121.711 27.423 121.818 26.959H123.21C123.114 27.519 122.89 27.991 122.538 28.375C122.191 28.759 121.773 29.0497 121.282 29.247C120.797 29.439 120.285 29.535 119.746 29.535ZM117.346 24.583H121.842C121.842 24.1083 121.762 23.6817 121.602 23.303C121.442 22.919 121.197 22.6177 120.866 22.399C120.541 22.175 120.13 22.063 119.634 22.063C119.117 22.063 118.687 22.1883 118.346 22.439C118.005 22.6843 117.751 23.0017 117.586 23.391C117.421 23.775 117.341 24.1723 117.346 24.583Z" fill="#3A3A3A"/>
<path fill-rule="evenodd" clip-rule="evenodd" d="M24.0828 6.625C22.8971 6.67565 21.4603 7.42943 20.61 8.44284C19.8456 9.34283 19.1783 10.7792 19.3582 12.1564C20.6821 12.2618 22.031 11.472 22.8551 10.4581C23.6775 9.44232 24.2343 8.03269 24.0828 6.625ZM23.7477 30.593C25.3543 30.5625 26.3719 29.1084 27.3556 27.6454C28.4335 26.0428 28.9095 24.489 28.9805 24.2573C28.9844 24.2444 28.9871 24.2356 28.9886 24.2311C28.9878 24.2308 28.9859 24.23 28.9827 24.2286C28.8281 24.1647 25.8544 22.9344 25.8248 19.3779C25.7958 16.441 28.0973 14.9801 28.3507 14.8192C28.3595 14.8136 28.3658 14.8096 28.3695 14.8071C26.9842 12.7456 24.8272 12.4629 24.0586 12.4306C22.9359 12.3151 21.8468 12.7518 20.9569 13.1086C20.3913 13.3353 19.9063 13.5298 19.5442 13.5298C19.1413 13.5298 18.643 13.3285 18.0837 13.1027C17.3517 12.807 16.5153 12.4692 15.6518 12.4854C13.6518 12.5159 11.8062 13.6699 10.7763 15.4939C8.69634 19.1666 10.2429 24.6089 12.2692 27.5868C13.261 29.0433 14.4404 30.6825 15.9914 30.6235C16.6839 30.5952 17.1767 30.3816 17.6864 30.1607C18.2755 29.9055 18.8871 29.6405 19.8554 29.6405C20.7776 29.6405 21.3609 29.8973 21.9219 30.1443C22.4585 30.3806 22.9747 30.6079 23.7477 30.593Z" fill="#565656"/>
</svg>
