<svg width="136" height="40" viewBox="0 0 136 40" fill="none" xmlns="http://www.w3.org/2000/svg">
<rect width="136" height="40" rx="4" fill="#F2F2F2"/>
<g clip-path="url(#clip0_12475_2864)">
<path d="M94.7118 32.451V21.603H96.1838L96.1998 23.043C96.2958 22.8723 96.4185 22.6937 96.5678 22.507C96.7225 22.3203 96.9091 22.147 97.1278 21.987C97.3518 21.827 97.6105 21.6963 97.9038 21.595C98.2025 21.4937 98.5411 21.443 98.9198 21.443C99.5811 21.443 100.162 21.595 100.664 21.899C101.17 22.1977 101.565 22.6563 101.848 23.275C102.13 23.8937 102.272 24.6777 102.272 25.627C102.272 26.5763 102.133 27.379 101.856 28.035C101.584 28.6857 101.189 29.1817 100.672 29.523C100.154 29.8643 99.5305 30.035 98.7998 30.035C98.4318 30.035 98.1038 29.9817 97.8158 29.875C97.5331 29.7737 97.2851 29.6403 97.0718 29.475C96.8638 29.3043 96.6878 29.123 96.5438 28.931C96.4051 28.739 96.2905 28.555 96.1998 28.379V32.451H94.7118ZM98.5198 28.883C99.2025 28.883 99.7598 28.6243 100.192 28.107C100.624 27.5843 100.84 26.7737 100.84 25.675C100.84 24.731 100.642 23.9817 100.248 23.427C99.8531 22.8723 99.2771 22.595 98.5198 22.595C97.7518 22.595 97.1705 22.8803 96.7758 23.451C96.3811 24.0163 96.1838 24.7577 96.1838 25.675C96.1838 26.267 96.2718 26.8057 96.4478 27.291C96.6238 27.7763 96.8851 28.163 97.2318 28.451C97.5785 28.739 98.0078 28.883 98.5198 28.883ZM106.331 29.979C105.883 29.979 105.52 29.9177 105.243 29.795C104.971 29.6723 104.76 29.507 104.611 29.299C104.467 29.091 104.368 28.8537 104.315 28.587C104.267 28.315 104.243 28.035 104.243 27.747V17.987H105.699V27.603C105.699 28.019 105.779 28.331 105.939 28.539C106.104 28.747 106.334 28.8617 106.627 28.883L107.075 28.891V29.851C106.952 29.8883 106.824 29.9177 106.691 29.939C106.558 29.9657 106.438 29.979 106.331 29.979ZM111.329 30.035C110.79 30.035 110.315 29.9417 109.905 29.755C109.499 29.563 109.179 29.2883 108.945 28.931C108.715 28.5737 108.601 28.1417 108.601 27.635C108.601 26.7177 108.921 26.035 109.561 25.587C110.201 25.139 111.227 24.899 112.641 24.867L114.113 24.827V24.179C114.113 23.6723 113.961 23.2723 113.657 22.979C113.353 22.6803 112.883 22.531 112.249 22.531C111.774 22.5363 111.355 22.6483 110.993 22.867C110.63 23.0857 110.398 23.443 110.297 23.939H108.993C109.025 23.4003 109.174 22.947 109.441 22.579C109.713 22.2057 110.094 21.923 110.585 21.731C111.075 21.539 111.654 21.443 112.321 21.443C113.041 21.443 113.638 21.5443 114.113 21.747C114.593 21.9497 114.95 22.2483 115.185 22.643C115.425 23.0377 115.545 23.523 115.545 24.099V29.875H114.281L114.169 28.323C113.854 28.9683 113.449 29.4163 112.953 29.667C112.462 29.9123 111.921 30.035 111.329 30.035ZM111.769 28.971C112.051 28.971 112.329 28.9203 112.601 28.819C112.878 28.7177 113.129 28.5817 113.353 28.411C113.582 28.235 113.766 28.0403 113.905 27.827C114.043 27.6083 114.113 27.3843 114.113 27.155V25.739L112.889 25.763C112.254 25.7737 111.726 25.8377 111.305 25.955C110.883 26.0723 110.566 26.2563 110.353 26.507C110.139 26.7577 110.033 27.0857 110.033 27.491C110.033 27.955 110.195 28.3177 110.521 28.579C110.846 28.8403 111.262 28.971 111.769 28.971ZM118.411 32.515C117.925 32.515 117.592 32.4803 117.411 32.411C117.229 32.3417 117.139 32.307 117.139 32.307V31.347L117.987 31.363C118.291 31.3737 118.544 31.3523 118.747 31.299C118.949 31.2457 119.112 31.1737 119.235 31.083C119.357 30.9923 119.451 30.891 119.515 30.779C119.584 30.667 119.64 30.5603 119.683 30.459L119.971 29.675L116.739 21.603H118.235L120.675 27.987L123.099 21.603H124.547L121.067 30.499C120.848 31.0217 120.605 31.4297 120.339 31.723C120.077 32.0163 119.784 32.2217 119.459 32.339C119.139 32.4563 118.789 32.515 118.411 32.515Z" fill="#3A3A3A"/>
<path d="M53.7543 13.25V6.02C53.7776 6.02 53.8476 6.02167 53.9643 6.025C54.0843 6.025 54.2293 6.025 54.3993 6.025C54.5693 6.02167 54.746 6.02167 54.9293 6.025C55.1126 6.025 55.281 6.02667 55.4343 6.03C56.321 6.04333 57.0393 6.18833 57.5893 6.465C58.1427 6.73833 58.5477 7.13667 58.8043 7.66C59.0643 8.18333 59.1943 8.82667 59.1943 9.59C59.1943 10.39 59.0543 11.0617 58.7743 11.605C58.4977 12.1483 58.0743 12.5583 57.5043 12.835C56.9376 13.1117 56.216 13.25 55.3393 13.25H53.7543ZM54.7043 12.455H55.3393C55.936 12.455 56.4493 12.3633 56.8793 12.18C57.3093 11.9933 57.6393 11.6917 57.8693 11.275C58.1027 10.8583 58.2193 10.3017 58.2193 9.605C58.2193 8.90833 58.106 8.35667 57.8793 7.95C57.656 7.54333 57.3326 7.25333 56.9093 7.08C56.486 6.90333 55.976 6.815 55.3793 6.815H54.7043V12.455ZM62.5679 13.35C62.0912 13.35 61.6746 13.2483 61.3179 13.045C60.9646 12.8383 60.6896 12.5367 60.4929 12.14C60.2962 11.7433 60.1979 11.2583 60.1979 10.685C60.1979 10.145 60.2896 9.67167 60.4729 9.265C60.6562 8.85833 60.9246 8.54333 61.2779 8.32C61.6312 8.09333 62.0629 7.98 62.5729 7.98C63.0496 7.98 63.4629 8.085 63.8129 8.295C64.1629 8.50167 64.4346 8.80667 64.6279 9.21C64.8246 9.61333 64.9229 10.105 64.9229 10.685C64.9229 11.2117 64.8329 11.675 64.6529 12.075C64.4729 12.475 64.2079 12.7883 63.8579 13.015C63.5112 13.2383 63.0812 13.35 62.5679 13.35ZM62.5729 12.62C62.8796 12.62 63.1396 12.5417 63.3529 12.385C63.5662 12.2283 63.7279 12.0033 63.8379 11.71C63.9512 11.4167 64.0079 11.0683 64.0079 10.665C64.0079 10.295 63.9579 9.96333 63.8579 9.67C63.7612 9.37333 63.6079 9.13833 63.3979 8.965C63.1879 8.79167 62.9129 8.705 62.5729 8.705C62.2596 8.705 61.9946 8.78333 61.7779 8.94C61.5612 9.09333 61.3962 9.31667 61.2829 9.61C61.1729 9.90333 61.1179 10.255 61.1179 10.665C61.1179 11.0283 61.1662 11.3583 61.2629 11.655C61.3629 11.9517 61.5196 12.1867 61.7329 12.36C61.9496 12.5333 62.2296 12.62 62.5729 12.62ZM67.1788 13.25L65.5788 8.08H66.4388L67.6188 12.055H67.6988L68.8638 8.08H69.5638L70.7738 12.045H70.8588L71.9888 8.08H72.8588L71.2888 13.25H70.3788L69.2038 9.435L68.0788 13.25H67.1788ZM73.8866 13.25V8.08H74.7816V8.83C74.8649 8.68667 74.9799 8.55167 75.1266 8.425C75.2766 8.29833 75.4566 8.19667 75.6666 8.12C75.8799 8.04333 76.1249 8.005 76.4016 8.005C76.7282 8.005 77.0282 8.07 77.3016 8.2C77.5782 8.33 77.7982 8.53333 77.9616 8.81C78.1282 9.08333 78.2116 9.43667 78.2116 9.87V13.25H77.2866V9.96C77.2866 9.55667 77.1799 9.25833 76.9666 9.065C76.7566 8.86833 76.4832 8.77 76.1466 8.77C75.9132 8.77 75.6949 8.80833 75.4916 8.885C75.2882 8.95833 75.1232 9.07167 74.9966 9.225C74.8699 9.375 74.8066 9.565 74.8066 9.795V13.25H73.8866ZM80.9631 13.315C80.6831 13.315 80.4564 13.2767 80.2831 13.2C80.1131 13.1233 79.9814 13.02 79.8881 12.89C79.7981 12.76 79.7364 12.6117 79.7031 12.445C79.6731 12.275 79.6581 12.1 79.6581 11.92V5.82H80.5681V11.83C80.5681 12.09 80.6181 12.285 80.7181 12.415C80.8214 12.545 80.9647 12.6167 81.1481 12.63L81.4281 12.635V13.235C81.3514 13.2583 81.2714 13.2767 81.1881 13.29C81.1047 13.3067 81.0297 13.315 80.9631 13.315ZM84.5113 13.35C84.0346 13.35 83.6179 13.2483 83.2613 13.045C82.9079 12.8383 82.6329 12.5367 82.4363 12.14C82.2396 11.7433 82.1413 11.2583 82.1413 10.685C82.1413 10.145 82.2329 9.67167 82.4163 9.265C82.5996 8.85833 82.8679 8.54333 83.2213 8.32C83.5746 8.09333 84.0063 7.98 84.5163 7.98C84.9929 7.98 85.4063 8.085 85.7563 8.295C86.1063 8.50167 86.3779 8.80667 86.5713 9.21C86.7679 9.61333 86.8663 10.105 86.8663 10.685C86.8663 11.2117 86.7763 11.675 86.5963 12.075C86.4163 12.475 86.1513 12.7883 85.8013 13.015C85.4546 13.2383 85.0246 13.35 84.5113 13.35ZM84.5163 12.62C84.8229 12.62 85.0829 12.5417 85.2963 12.385C85.5096 12.2283 85.6713 12.0033 85.7813 11.71C85.8946 11.4167 85.9513 11.0683 85.9513 10.665C85.9513 10.295 85.9013 9.96333 85.8013 9.67C85.7046 9.37333 85.5513 9.13833 85.3413 8.965C85.1313 8.79167 84.8563 8.705 84.5163 8.705C84.2029 8.705 83.9379 8.78333 83.7213 8.94C83.5046 9.09333 83.3396 9.31667 83.2263 9.61C83.1163 9.90333 83.0613 10.255 83.0613 10.665C83.0613 11.0283 83.1096 11.3583 83.2063 11.655C83.3063 11.9517 83.4629 12.1867 83.6763 12.36C83.8929 12.5333 84.1729 12.62 84.5163 12.62ZM89.487 13.35C89.1503 13.35 88.8536 13.2917 88.597 13.175C88.3436 13.055 88.1436 12.8833 87.997 12.66C87.8536 12.4367 87.782 12.1667 87.782 11.85C87.782 11.2767 87.982 10.85 88.382 10.57C88.782 10.29 89.4236 10.14 90.307 10.12L91.227 10.095V9.69C91.227 9.37333 91.132 9.12333 90.942 8.94C90.752 8.75333 90.4586 8.66 90.062 8.66C89.7653 8.66333 89.5036 8.73333 89.277 8.87C89.0503 9.00667 88.9053 9.23 88.842 9.54H88.027C88.047 9.20333 88.1403 8.92 88.307 8.69C88.477 8.45667 88.7153 8.28 89.022 8.16C89.3286 8.04 89.6903 7.98 90.107 7.98C90.557 7.98 90.9303 8.04333 91.227 8.17C91.527 8.29667 91.7503 8.48333 91.897 8.73C92.047 8.97667 92.122 9.28 92.122 9.64V13.25H91.332L91.262 12.28C91.0653 12.6833 90.812 12.9633 90.502 13.12C90.1953 13.2733 89.857 13.35 89.487 13.35ZM89.762 12.685C89.9386 12.685 90.112 12.6533 90.282 12.59C90.4553 12.5267 90.612 12.4417 90.752 12.335C90.8953 12.225 91.0103 12.1033 91.097 11.97C91.1836 11.8333 91.227 11.6933 91.227 11.55V10.665L90.462 10.68C90.0653 10.6867 89.7353 10.7267 89.472 10.8C89.2086 10.8733 89.0103 10.9883 88.877 11.145C88.7436 11.3017 88.677 11.5067 88.677 11.76C88.677 12.05 88.7786 12.2767 88.982 12.44C89.1853 12.6033 89.4453 12.685 89.762 12.685ZM95.4493 13.35C94.776 13.35 94.2426 13.12 93.8493 12.66C93.4593 12.2 93.2643 11.5283 93.2643 10.645C93.2643 10.1083 93.3426 9.64 93.4993 9.24C93.656 8.84 93.891 8.53 94.2043 8.31C94.5176 8.09 94.9076 7.98 95.3743 7.98C95.6243 7.98 95.8443 8.01167 96.0343 8.075C96.2243 8.13833 96.3893 8.21833 96.5293 8.315C96.6693 8.41167 96.7826 8.51167 96.8693 8.615C96.9593 8.71833 97.026 8.81333 97.0693 8.9V5.82H98.0043V13.25H97.2943L97.1943 12.19C97.161 12.29 97.1076 12.4067 97.0343 12.54C96.961 12.67 96.8576 12.7983 96.7243 12.925C96.5943 13.0483 96.4243 13.15 96.2143 13.23C96.0043 13.31 95.7493 13.35 95.4493 13.35ZM95.6143 12.64C96.1343 12.64 96.506 12.4817 96.7293 12.165C96.956 11.845 97.0693 11.3233 97.0693 10.6C97.066 10.1967 97.016 9.85333 96.9193 9.57C96.8226 9.28667 96.6693 9.07167 96.4593 8.925C96.2526 8.775 95.976 8.7 95.6293 8.7C95.206 8.7 94.861 8.85167 94.5943 9.155C94.3276 9.45833 94.1943 9.94 94.1943 10.6C94.1943 11.2467 94.3143 11.7483 94.5543 12.105C94.7943 12.4617 95.1476 12.64 95.6143 12.64ZM103.906 13.35C103.429 13.35 103.012 13.2483 102.656 13.045C102.302 12.8383 102.027 12.5367 101.831 12.14C101.634 11.7433 101.536 11.2583 101.536 10.685C101.536 10.145 101.627 9.67167 101.811 9.265C101.994 8.85833 102.262 8.54333 102.616 8.32C102.969 8.09333 103.401 7.98 103.911 7.98C104.387 7.98 104.801 8.085 105.151 8.295C105.501 8.50167 105.772 8.80667 105.966 9.21C106.162 9.61333 106.261 10.105 106.261 10.685C106.261 11.2117 106.171 11.675 105.991 12.075C105.811 12.475 105.546 12.7883 105.196 13.015C104.849 13.2383 104.419 13.35 103.906 13.35ZM103.911 12.62C104.217 12.62 104.477 12.5417 104.691 12.385C104.904 12.2283 105.066 12.0033 105.176 11.71C105.289 11.4167 105.346 11.0683 105.346 10.665C105.346 10.295 105.296 9.96333 105.196 9.67C105.099 9.37333 104.946 9.13833 104.736 8.965C104.526 8.79167 104.251 8.705 103.911 8.705C103.597 8.705 103.332 8.78333 103.116 8.94C102.899 9.09333 102.734 9.31667 102.621 9.61C102.511 9.90333 102.456 10.255 102.456 10.665C102.456 11.0283 102.504 11.3583 102.601 11.655C102.701 11.9517 102.857 12.1867 103.071 12.36C103.287 12.5333 103.567 12.62 103.911 12.62ZM107.49 13.25V8.08H108.385V8.83C108.468 8.68667 108.583 8.55167 108.73 8.425C108.88 8.29833 109.06 8.19667 109.27 8.12C109.483 8.04333 109.728 8.005 110.005 8.005C110.332 8.005 110.632 8.07 110.905 8.2C111.182 8.33 111.402 8.53333 111.565 8.81C111.732 9.08333 111.815 9.43667 111.815 9.87V13.25H110.89V9.96C110.89 9.55667 110.783 9.25833 110.57 9.065C110.36 8.86833 110.087 8.77 109.75 8.77C109.517 8.77 109.298 8.80833 109.095 8.885C108.892 8.95833 108.727 9.07167 108.6 9.225C108.473 9.375 108.41 9.565 108.41 9.795V13.25H107.49Z" fill="#3A3A3A"/>
</g>
<path fill-rule="evenodd" clip-rule="evenodd" d="M11.7886 12.6797V31.3224C11.7886 31.9712 12.1637 32.5323 12.7087 32.8L23.4969 21.9979L12.7131 11.2C12.1657 11.4668 11.7886 12.0292 11.7886 12.6797ZM15.1267 32.24L26.9182 25.4234L24.4263 22.9283L15.1267 32.24ZM30.5834 20.6941C30.9756 20.9947 31.2286 21.4683 31.2286 22.001C31.2286 22.5258 30.9832 22.993 30.6011 23.2942L28.0965 24.7422L25.3556 21.9979L28.0946 19.2553L30.5834 20.6941ZM26.9163 18.5741L15.1336 11.7626L24.4263 21.0673L26.9163 18.5741Z" fill="#565656"/>
<path fill-rule="evenodd" clip-rule="evenodd" d="M45.6802 24.2283V26.0205H49.979C49.8537 27.0357 49.5153 27.7751 49.0014 28.289C48.3749 28.9156 47.3973 29.605 45.6802 29.605C43.0357 29.605 40.9677 27.4744 40.9677 24.8299C40.9677 22.1854 43.0357 20.0547 45.6802 20.0547C47.109 20.0547 48.1492 20.6187 48.9263 21.3331L50.1922 20.0673C49.1143 19.0396 47.6855 18.25 45.6802 18.25C42.0581 18.25 39 21.2078 39 24.8299C39 28.452 42.0456 31.4098 45.6802 31.4098C47.6353 31.4098 49.1143 30.7705 50.2673 29.5675C51.4579 28.3768 51.8214 26.7099 51.8214 25.3689C51.8214 24.9552 51.7839 24.5667 51.7212 24.2408L45.6802 24.2283ZM77.3764 23.8899H77.3138C76.9003 23.3886 76.0981 22.9373 75.0829 22.9373C72.9648 22.9373 71.0222 24.8048 71.0222 27.1861C71.0222 29.5548 72.9648 31.4098 75.0829 31.4098C76.0981 31.4098 76.9003 30.9586 77.3138 30.4448H77.3764V31.0588C77.3764 32.6756 76.5116 33.5404 75.1205 33.5404C73.98 33.5404 73.2782 32.7257 72.9899 32.0364L71.3731 32.7132C71.8368 33.8412 73.0775 35.2199 75.133 35.2199C77.3138 35.2199 79.1561 33.9414 79.1561 30.8081V23.2005H77.389L77.3764 23.8899ZM61.7476 27.1735C61.7476 24.7171 63.6527 22.9374 65.9964 22.9374C68.34 22.9374 70.2451 24.7296 70.2451 27.1735C70.2451 29.6175 68.34 31.4098 65.9964 31.4098C63.6527 31.4098 61.7476 29.6175 61.7476 27.1735ZM90.7994 25.6445C90.4485 24.6919 89.3707 22.9499 87.1774 22.9499C84.9966 22.9499 83.1794 24.6669 83.1794 27.1862C83.1794 29.5548 84.9715 31.4223 87.378 31.4223C89.3206 31.4223 90.4485 30.2316 90.9123 29.5423L89.4709 28.5773C88.9947 29.2791 88.3305 29.7428 87.3904 29.7428C86.4505 29.7428 85.7736 29.3041 85.335 28.4645L91 26.1207L90.7994 25.6445ZM84.7012 27.25C84.6404 25.255 86.2394 24.25 87.3969 24.25C88.2953 24.25 89.0568 24.6916 89.3004 25.3464L84.7012 27.25ZM65.9964 29.7428C64.718 29.7428 63.6026 28.6775 63.6026 27.1735C63.6026 25.6445 64.7055 24.6043 65.9964 24.6043C67.2872 24.6043 68.3902 25.6445 68.3902 27.1735C68.3778 28.6775 67.2748 29.7428 65.9964 29.7428ZM72.8896 27.1862C72.8896 28.665 73.9675 29.7428 75.2458 29.7428C76.5116 29.7428 77.5018 28.6775 77.5018 27.1862C77.5018 25.6947 76.5116 24.6043 75.2458 24.6043C73.9675 24.6043 72.8896 25.6947 72.8896 27.1862ZM52.4731 27.1735C52.4731 24.7171 54.3782 22.9374 56.7219 22.9374C59.0655 22.9374 60.9706 24.7296 60.9706 27.1735C60.9706 29.6175 59.0655 31.4098 56.7219 31.4098C54.3782 31.4098 52.4731 29.6175 52.4731 27.1735ZM56.7219 29.7428C55.4434 29.7428 54.328 28.6775 54.328 27.1735C54.328 25.6445 55.431 24.6043 56.7219 24.6043C58.0003 24.6043 59.1157 25.6445 59.1157 27.1735C59.1031 28.6775 58.0003 29.7428 56.7219 29.7428ZM82.2769 31.1591H80.4221V18.7137H82.2769V31.1591Z" fill="#565656"/>
<defs>
<clipPath id="clip0_12475_2864">
<rect width="72.0588" height="31.625" fill="white" transform="translate(53.1479 3.25)"/>
</clipPath>
</defs>
</svg>
